<?xml version="1.0" encoding="UTF-8" standalone="no"?>
<!-- Created with Inkscape (http://www.inkscape.org/) -->

<svg
   width="1280"
   height="640"
   viewBox="0 0 338.66666 169.33333"
   version="1.1"
   id="svg1"
   sodipodi:docname="turbomodz.svg"
   inkscape:version="1.3.2 (091e20e, 2023-11-25, custom)"
   inkscape:export-filename="..\..\..\Downloads\turbomodz.png"
   inkscape:export-xdpi="45"
   inkscape:export-ydpi="45"
   xmlns:inkscape="http://www.inkscape.org/namespaces/inkscape"
   xmlns:sodipodi="http://sodipodi.sourceforge.net/DTD/sodipodi-0.dtd"
   xmlns:xlink="http://www.w3.org/1999/xlink"
   xmlns="http://www.w3.org/2000/svg"
   xmlns:svg="http://www.w3.org/2000/svg">
  <sodipodi:namedview
     id="namedview1"
     pagecolor="#ffffff"
     bordercolor="#000000"
     borderopacity="0.25"
     inkscape:showpageshadow="2"
     inkscape:pageopacity="0.0"
     inkscape:pagecheckerboard="0"
     inkscape:deskcolor="#d1d1d1"
     inkscape:zoom="0.79394535"
     inkscape:cx="611.50305"
     inkscape:cy="218.52889"
     inkscape:window-width="1920"
     inkscape:window-height="1009"
     inkscape:window-x="-8"
     inkscape:window-y="-8"
     inkscape:window-maximized="1"
     inkscape:current-layer="svg1" />
  <defs
     id="defs1">
    <linearGradient
       id="linearGradient4"
       inkscape:collect="always">
      <stop
         style="stop-color:#fd939e;stop-opacity:1;"
         offset="0"
         id="stop4" />
      <stop
         style="stop-color:#ee90ff;stop-opacity:1"
         offset="1"
         id="stop5" />
    </linearGradient>
    <linearGradient
       id="linearGradient2"
       inkscape:collect="always">
      <stop
         style="stop-color:#020001;stop-opacity:1;"
         offset="0"
         id="stop2" />
      <stop
         style="stop-color:#1a31a3;stop-opacity:0;"
         offset="1"
         id="stop3" />
    </linearGradient>
    <pattern
       inkscape:collect="always"
       xlink:href="#pattern6795"
       id="pattern1"
       patternTransform="translate(185,405)"
       x="0"
       y="0"
       preserveAspectRatio="none"
       width="36" />
    <pattern
       patternUnits="userSpaceOnUse"
       width="20"
       height="20"
       patternTransform="translate(185,405)"
       style="fill:#ffffff"
       id="pattern6795"
       inkscape:label="Abstract 2"
       inkscape:collect="always"
       inkscape:isstock="true">
      <path
         id="rect6713"
         style="opacity:1;stroke-width:4.8561;stroke-linecap:square;paint-order:stroke markers fill;stop-color:#000000"
         d="M 10,10 H 20 L 15,20 H 5 Z M 5,0 H 15 L 10,10 H 0 Z" />
    </pattern>
    <linearGradient
       id="linearGradient16"
       inkscape:collect="always">
      <stop
         style="stop-color:#7200a3;stop-opacity:1;"
         offset="0"
         id="stop16" />
      <stop
         style="stop-color:#fe00f3;stop-opacity:1;"
         offset="1"
         id="stop17" />
    </linearGradient>
    <clipPath
       clipPathUnits="userSpaceOnUse"
       id="clipPath52">
      <path
         id="path52"
         style="stroke-width:0.1;stroke-linecap:square;paint-order:markers fill stroke;stop-color:#000000"
         d="m -880.82767,-187.29769 h 1640.84 v 73.28155 h -1640.84 z" />
    </clipPath>
    <linearGradient
       id="linearGradient92">
      <stop
         style="stop-color:#000000;stop-opacity:1;"
         offset="0"
         id="stop92" />
      <stop
         style="stop-color:#e8596f;stop-opacity:0.2;"
         offset="1"
         id="stop93" />
    </linearGradient>
    <linearGradient
       id="linearGradient86">
      <stop
         style="stop-color:#ff9393;stop-opacity:1;"
         offset="0"
         id="stop86" />
      <stop
         style="stop-color:#ee90ff;stop-opacity:1"
         offset="0.73455918"
         id="stop87" />
    </linearGradient>
    <linearGradient
       id="swatch18">
      <stop
         style="stop-color:#000000;stop-opacity:1;"
         offset="0"
         id="stop18" />
    </linearGradient>
    <linearGradient
       xlink:href="#linearGradient86"
       id="linearGradient87"
       x1="2.601203"
       y1="8.0995693"
       x2="7.8542061"
       y2="8.0995693"
       gradientUnits="userSpaceOnUse"
       gradientTransform="matrix(0,1.2409206,-3.3805759,0,33.677586,3.0675702)" />
    <linearGradient
       xlink:href="#linearGradient92"
       id="linearGradient93"
       x1="2.8663142"
       y1="6.4624877"
       x2="9.9769001"
       y2="13.060527"
       gradientUnits="userSpaceOnUse" />
    <linearGradient
       inkscape:collect="always"
       xlink:href="#linearGradient16"
       id="linearGradient17"
       x1="161.18068"
       y1="40.494858"
       x2="163.80434"
       y2="206.38841"
       gradientUnits="userSpaceOnUse"
       gradientTransform="translate(0,-35.718751)" />
    <linearGradient
       inkscape:collect="always"
       xlink:href="#linearGradient2"
       id="linearGradient3"
       x1="99.575653"
       y1="66.0355"
       x2="99.783607"
       y2="88.276665"
       gradientUnits="userSpaceOnUse" />
    <linearGradient
       inkscape:collect="always"
       xlink:href="#linearGradient4"
       id="linearGradient5"
       x1="99.575653"
       y1="66.0355"
       x2="99.783607"
       y2="88.276665"
       gradientUnits="userSpaceOnUse" />
  </defs>
  <g
     id="g5">
    <rect
       style="fill:url(#linearGradient17);fill-rule:evenodd;stroke:#b11c1c;stroke-width:0.456999;stroke-linejoin:bevel;paint-order:fill markers stroke"
       id="rect1-6"
       width="338.66666"
       height="169.33333"
       x="0.2284995"
       y="0.2284995" />
    <rect
       style="fill:url(#pattern1);fill-rule:evenodd;stroke:#b11c1c;stroke-width:0.456999;stroke-linejoin:bevel;paint-order:fill markers stroke;fill-opacity:1;opacity:0.52116402"
       id="rect1"
       width="338.66666"
       height="169.33333"
       x="0.2284995"
       y="0.2284995" />
  </g>
  <g
     id="g103"
     transform="matrix(10.112694,0,0,10.320971,-17.501784,-46.089751)">
    <path
       d="m 2.8728575,6.4600656 v 2.5135416 h 2.1978157 v 3.8464988 l 2.4424304,0.0072 V 8.9736072 h 2.206881 V 6.4600656 H 6.296421 Z"
       style="fill:url(#linearGradient87);fill-rule:evenodd;stroke:url(#linearGradient93);stroke-width:0.543286;stroke-linejoin:round;stroke-opacity:1;paint-order:fill markers stroke"
       id="path90" />
    <path
       d="M 3.3313146,7.3343038 V 8.1648463 A 0.40389607,0.40389607 45 0 0 3.7352107,8.5687424 H 5.0626086 A 0.60451049,0.60451049 45.233066 0 1 5.6670991,9.1781709 L 5.6404368,12.45535 a 0.43587868,0.43587868 45.968459 0 0 0.4246765,0.439281 l 0.5760058,0.01479 A 0.40745954,0.40745954 135.04222 0 0 7.0589177,12.492237 L 6.9775058,9.1282337 A 0.54627484,0.54627484 134.30683 0 1 7.5236207,8.5687424 H 8.8761516 A 0.40389607,0.40389607 135 0 0 9.2800477,8.1648463 V 7.3147382 A 0.42851376,0.42851376 45 0 0 8.8515339,6.8862244 H 6.3204091 3.779394 A 0.44807938,0.44807938 135 0 0 3.3313146,7.3343038 Z"
       style="fill:#fff0f0;fill-opacity:1;fill-rule:evenodd;stroke:none;stroke-width:0.298252;stroke-linejoin:round;stroke-opacity:1;paint-order:fill markers stroke"
       id="path90-8"
       transform="matrix(0.83907416,0,0,0.90143743,0.98668793,0.72290721)" />
  </g>
  <g
     id="g1"
     transform="translate(193.22829,37.231793)">
    <g
       id="g119"
       transform="matrix(8.8116001,0,0,8.9930802,-23.98843,-39.819667)">
      <path
         d="M 11.995815,10.472741 A 2.6961706,2.6961706 0 0 0 9.2998552,13.1687 2.6961706,2.6961706 0 0 0 11.995815,15.864659 2.6961706,2.6961706 0 0 0 14.692291,13.1687 2.6961706,2.6961706 0 0 0 11.995815,10.472741 Z m -0.0093,1.173055 a 1.5685072,1.5685072 0 0 1 1.56838,1.568896 1.5685072,1.5685072 0 0 1 -1.56838,1.56838 1.5685072,1.5685072 0 0 1 -1.56838,-1.56838 1.5685072,1.5685072 0 0 1 1.56838,-1.568896 z"
         style="fill:#515151;fill-opacity:1;fill-rule:evenodd;stroke:none;stroke-width:0.265"
         id="path98" />
      <g
         id="g102">
        <path
           id="rect99"
           style="fill:#515151;fill-rule:evenodd;stroke-width:0.609909;stroke-linecap:round;stroke-linejoin:round;paint-order:fill markers stroke"
           d="m 11.6096,9.4455735 h 0.811501 a 0.32401087,0.32401087 45 0 1 0.324011,0.3240109 v 1.4701216 h -1.45805 V 9.7681117 A 0.3225382,0.3225382 135 0 1 11.6096,9.4455735 Z" />
        <path
           id="rect99-07"
           style="fill:#515151;fill-rule:evenodd;stroke-width:0.609909;stroke-linecap:round;stroke-linejoin:round;paint-order:fill markers stroke"
           d="m 11.6096,9.4455735 h 0.811501 a 0.32401087,0.32401087 45 0 1 0.324011,0.3240109 v 1.4701216 h -1.45805 V 9.7681117 A 0.3225382,0.3225382 135 0 1 11.6096,9.4455735 Z"
           transform="rotate(180,12.035988,13.220288)" />
        <path
           id="rect99-0"
           style="fill:#515151;fill-rule:evenodd;stroke-width:0.609909;stroke-linecap:round;stroke-linejoin:round;paint-order:fill markers stroke"
           d="m 11.6096,9.4455735 h 0.811501 a 0.32401087,0.32401087 45 0 1 0.324011,0.3240109 v 1.4701216 h -1.45805 V 9.7681117 A 0.3225382,0.3225382 135 0 1 11.6096,9.4455735 Z"
           transform="rotate(90,12.184638,13.379328)" />
        <path
           id="rect99-0-2"
           style="fill:#515151;fill-rule:evenodd;stroke-width:0.609909;stroke-linecap:round;stroke-linejoin:round;paint-order:fill markers stroke"
           d="m 11.6096,9.4455735 h 0.811501 a 0.32401087,0.32401087 45 0 1 0.324011,0.3240109 v 1.4701216 h -1.45805 V 9.7681117 A 0.3225382,0.3225382 135 0 1 11.6096,9.4455735 Z"
           transform="rotate(-90,11.88114,13.392918)" />
      </g>
      <g
         id="g102-9"
         transform="rotate(45,12.002215,13.240481)">
        <path
           id="rect99-7"
           style="fill:#515151;fill-rule:evenodd;stroke-width:0.609909;stroke-linecap:round;stroke-linejoin:round;paint-order:fill markers stroke"
           d="m 11.6096,9.4455735 h 0.811501 a 0.32401087,0.32401087 45 0 1 0.324011,0.3240109 v 1.4701216 h -1.45805 V 9.7681117 A 0.3225382,0.3225382 135 0 1 11.6096,9.4455735 Z" />
        <path
           id="rect99-07-5"
           style="fill:#515151;fill-rule:evenodd;stroke-width:0.609909;stroke-linecap:round;stroke-linejoin:round;paint-order:fill markers stroke"
           d="m 11.6096,9.4455735 h 0.811501 a 0.32401087,0.32401087 45 0 1 0.324011,0.3240109 v 1.4701216 h -1.45805 V 9.7681117 A 0.3225382,0.3225382 135 0 1 11.6096,9.4455735 Z"
           transform="rotate(180,12.035988,13.220288)" />
        <path
           id="rect99-0-27"
           style="fill:#515151;fill-rule:evenodd;stroke-width:0.609909;stroke-linecap:round;stroke-linejoin:round;paint-order:fill markers stroke"
           d="m 11.6096,9.4455735 h 0.811501 a 0.32401087,0.32401087 45 0 1 0.324011,0.3240109 v 1.4701216 h -1.45805 V 9.7681117 A 0.3225382,0.3225382 135 0 1 11.6096,9.4455735 Z"
           transform="rotate(90,12.184638,13.379328)" />
        <path
           id="rect99-0-2-4"
           style="fill:#515151;fill-rule:evenodd;stroke-width:0.609909;stroke-linecap:round;stroke-linejoin:round;paint-order:fill markers stroke"
           d="m 11.6096,9.4455735 h 0.811501 a 0.32401087,0.32401087 45 0 1 0.324011,0.3240109 v 1.4701216 h -1.45805 V 9.7681117 A 0.3225382,0.3225382 135 0 1 11.6096,9.4455735 Z"
           transform="rotate(-90,11.88114,13.392918)" />
      </g>
    </g>
    <path
       id="rect95"
       style="fill:#ffffff;fill-opacity:1;fill-rule:evenodd;stroke-width:9.38218;stroke-linecap:round;stroke-linejoin:round;paint-order:fill markers stroke"
       d="m 69.054972,65.17821 17.765985,0.115266 7.299293,15.287823 -6.775431,1.947366 6.656275,15.56187 -21.58716,-17.44835 8.39432,-0.228031 z" />
  </g>
  <circle
     id="path6"
     style="fill:#572e9f;stroke:none;stroke-width:0.264583"
     cx="116.17262"
     cy="66.216034"
     r="0" />
  <circle
     id="path7"
     style="fill:#572e9f;stroke:none;stroke-width:0.264583"
     cx="145.62816"
     cy="58.439777"
     r="0" />
  <text
     xml:space="preserve"
     style="font-style:normal;font-variant:normal;font-weight:normal;font-stretch:normal;font-size:11.2889px;font-family:'Liberation Sans Narrow';-inkscape-font-specification:'Liberation Sans Narrow';white-space:pre;inline-size:69.3232;fill:url(#linearGradient5);fill-rule:evenodd;stroke:url(#linearGradient3);stroke-width:0.78462;stroke-linecap:round;stroke-linejoin:round;stroke-dasharray:none;paint-order:fill markers stroke"
     x="74.315048"
     y="82.31308"
     id="text2"
     transform="matrix(3.3717452,0,0,2.986784,-189.29602,-164.50757)"><tspan
       x="74.315048"
       y="82.31308"
       id="tspan3"><tspan
         style="font-family:'Bauhaus 93';-inkscape-font-specification:'Bauhaus 93, '"
         id="tspan1">URBOMODZ</tspan></tspan></text>
</svg>
